<svg width="19" height="19" viewBox="0 0 19 19" fill="none" xmlns="http://www.w3.org/2000/svg">
<g clip-path="url(#clip0)">
<path d="M10.5492 9.501L18.7821 1.26801C19.072 0.978148 19.072 0.508196 18.7821 0.218372C18.4923 -0.0714515 18.0223 -0.0714886 17.7325 0.218372L9.4995 8.45137L1.26654 0.218372C0.976683 -0.0714886 0.506731 -0.0714886 0.216907 0.218372C-0.0729164 0.508233 -0.0729535 0.978185 0.216907 1.26801L8.44987 9.50097L0.216907 17.734C-0.0729535 18.0238 -0.0729535 18.4938 0.216907 18.7836C0.361819 18.9285 0.551782 19.0009 0.741744 19.0009C0.931707 19.0009 1.12163 18.9285 1.26658 18.7836L9.4995 10.5506L17.7325 18.7836C17.8774 18.9285 18.0673 19.0009 18.2573 19.0009C18.4473 19.0009 18.6372 18.9285 18.7821 18.7836C19.072 18.4937 19.072 18.0238 18.7821 17.734L10.5492 9.501Z" fill="white"/>
</g>
<defs>
<clipPath id="clip0">
<rect width="19" height="19" fill="white"/>
</clipPath>
</defs>
</svg>
