<svg width="22" height="14" viewBox="0 0 22 14" fill="none" xmlns="http://www.w3.org/2000/svg">
<path d="M18.2554 7.94201C17.8998 7.49284 18.0015 7.29301 18.2554 6.89151C18.26 6.88693 21.1961 2.82976 21.4986 1.45384L21.5004 1.45292C21.6508 0.951508 21.5004 0.583008 20.7735 0.583008H18.3682C17.7558 0.583008 17.4735 0.899258 17.3223 1.25309C17.3223 1.25309 16.0976 4.18459 14.3651 6.08484C13.8059 6.63393 13.5474 6.80993 13.2422 6.80993C13.0918 6.80993 12.8581 6.63393 12.8581 6.13251V1.45292C12.8581 0.851591 12.6867 0.583008 12.1798 0.583008H8.39758C8.0135 0.583008 7.78525 0.863508 7.78525 1.12476C7.78525 1.69492 8.6515 1.82601 8.74133 3.43018V6.91076C8.74133 7.67343 8.60292 7.81368 8.29583 7.81368C7.47817 7.81368 5.49358 4.87026 4.3175 1.50151C4.08008 0.847924 3.84817 0.583924 3.23125 0.583924H0.825C0.138417 0.583924 0 0.900174 0 1.25401C0 1.87917 0.817666 4.98759 3.80233 9.09426C5.7915 11.8974 8.59283 13.4163 11.1412 13.4163C12.6729 13.4163 12.8599 13.079 12.8599 12.4988C12.8599 9.82026 12.7215 9.56726 13.4888 9.56726C13.8444 9.56726 14.4568 9.74326 15.8868 11.0953C17.5212 12.6986 17.7898 13.4163 18.7046 13.4163H21.1099C21.7956 13.4163 22.143 13.079 21.9432 12.4135C21.4858 11.0138 18.3948 8.13451 18.2554 7.94201Z" fill="#EFF1F7"/>
</svg>
