<svg width="27" height="27" viewBox="0 0 27 27" fill="none" xmlns="http://www.w3.org/2000/svg">
<path d="M23.5633 11.2655L13.5 7.92969L3.43662 11.2655L0.000488281 16.7235L3.16377 17.7721V23.5734L13.4999 26.9996L23.836 23.5734V17.7721L26.9993 16.7235L23.5633 11.2655ZM20.531 11.9271L13.5 14.2577L6.46891 11.9271L13.5 9.59644L20.531 11.9271ZM2.41535 15.8573L4.29415 12.8729L12.2925 15.5242L10.4138 18.5086L2.41535 15.8573ZM4.74588 18.2966L11.0923 20.4003L12.7089 17.8324V25.0707L4.74588 22.4311V18.2966ZM14.291 25.0706V17.8324L15.9076 20.4002L22.254 18.2965V22.431L14.291 25.0706ZM16.5861 18.5086L14.7074 15.5243L22.7058 12.8729L24.5846 15.8573L16.5861 18.5086Z" fill="#717171"/>
</svg>
